<mxfile host="app.diagrams.net" agent="Mozilla/5.0 (Windows NT 10.0; Win64; x64) AppleWebKit/537.36 (KHTML, like Gecko) Chrome/130.0.0.0 Safari/537.36" version="24.9.1" pages="2">
  <diagram name="const" id="KrUm9lUJLkR9Ysen6CyD">
    <mxGraphModel dx="1116" dy="1895" grid="1" gridSize="10" guides="1" tooltips="1" connect="1" arrows="1" fold="1" page="1" pageScale="1" pageWidth="827" pageHeight="1169" math="0" shadow="0">
      <root>
        <mxCell id="yMQ-dYww4BlOTwWdslz3-0" />
        <mxCell id="yMQ-dYww4BlOTwWdslz3-1" parent="yMQ-dYww4BlOTwWdslz3-0" />
        <mxCell id="yMQ-dYww4BlOTwWdslz3-2" value="0x00ABEA21" style="rounded=0;whiteSpace=wrap;html=1;fontSize=23;fillColor=#d5e8d4;strokeColor=#82b366;" vertex="1" parent="yMQ-dYww4BlOTwWdslz3-1">
          <mxGeometry x="441" y="40" width="160" height="40" as="geometry" />
        </mxCell>
        <mxCell id="yMQ-dYww4BlOTwWdslz3-3" value="A8" style="rounded=0;whiteSpace=wrap;html=1;fontSize=23;fillColor=#e1d5e7;strokeColor=#9673a6;" vertex="1" parent="yMQ-dYww4BlOTwWdslz3-1">
          <mxGeometry x="601" y="40" width="80" height="40" as="geometry" />
        </mxCell>
        <mxCell id="yMQ-dYww4BlOTwWdslz3-4" value="..." style="rounded=0;whiteSpace=wrap;html=1;fontSize=23;" vertex="1" parent="yMQ-dYww4BlOTwWdslz3-1">
          <mxGeometry x="441" y="80" width="160" height="40" as="geometry" />
        </mxCell>
        <mxCell id="yMQ-dYww4BlOTwWdslz3-5" value="0x00EDFDA8" style="rounded=0;whiteSpace=wrap;html=1;fontSize=23;fillColor=#f8cecc;strokeColor=#b85450;" vertex="1" parent="yMQ-dYww4BlOTwWdslz3-1">
          <mxGeometry x="441" y="120" width="160" height="40" as="geometry" />
        </mxCell>
        <mxCell id="yMQ-dYww4BlOTwWdslz3-6" value="0x00EDFDA9" style="rounded=0;whiteSpace=wrap;html=1;fontSize=23;fillColor=#f8cecc;strokeColor=#b85450;" vertex="1" parent="yMQ-dYww4BlOTwWdslz3-1">
          <mxGeometry x="441" y="160" width="160" height="40" as="geometry" />
        </mxCell>
        <mxCell id="yMQ-dYww4BlOTwWdslz3-7" value="0x00EDFDAA" style="rounded=0;whiteSpace=wrap;html=1;fontSize=23;fillColor=#f8cecc;strokeColor=#b85450;" vertex="1" parent="yMQ-dYww4BlOTwWdslz3-1">
          <mxGeometry x="441" y="200" width="160" height="40" as="geometry" />
        </mxCell>
        <mxCell id="yMQ-dYww4BlOTwWdslz3-8" value="0x00EDFDAB" style="rounded=0;whiteSpace=wrap;html=1;fontSize=23;fillColor=#f8cecc;strokeColor=#b85450;" vertex="1" parent="yMQ-dYww4BlOTwWdslz3-1">
          <mxGeometry x="441" y="240" width="160" height="40" as="geometry" />
        </mxCell>
        <mxCell id="yMQ-dYww4BlOTwWdslz3-9" value="..." style="rounded=0;whiteSpace=wrap;html=1;fontSize=23;" vertex="1" parent="yMQ-dYww4BlOTwWdslz3-1">
          <mxGeometry x="601" y="80" width="80" height="40" as="geometry" />
        </mxCell>
        <mxCell id="yMQ-dYww4BlOTwWdslz3-10" value="21" style="rounded=0;whiteSpace=wrap;html=1;fontSize=23;fillColor=#f8cecc;strokeColor=#b85450;" vertex="1" parent="yMQ-dYww4BlOTwWdslz3-1">
          <mxGeometry x="601" y="120" width="80" height="40" as="geometry" />
        </mxCell>
        <mxCell id="yMQ-dYww4BlOTwWdslz3-11" value="43" style="rounded=0;whiteSpace=wrap;html=1;fontSize=23;fillColor=#f8cecc;strokeColor=#b85450;" vertex="1" parent="yMQ-dYww4BlOTwWdslz3-1">
          <mxGeometry x="601" y="160" width="80" height="40" as="geometry" />
        </mxCell>
        <mxCell id="yMQ-dYww4BlOTwWdslz3-12" value="87" style="rounded=0;whiteSpace=wrap;html=1;fontSize=23;fillColor=#f8cecc;strokeColor=#b85450;" vertex="1" parent="yMQ-dYww4BlOTwWdslz3-1">
          <mxGeometry x="601" y="240" width="80" height="40" as="geometry" />
        </mxCell>
        <mxCell id="yMQ-dYww4BlOTwWdslz3-13" value="65" style="rounded=0;whiteSpace=wrap;html=1;fontSize=23;fillColor=#f8cecc;strokeColor=#b85450;" vertex="1" parent="yMQ-dYww4BlOTwWdslz3-1">
          <mxGeometry x="601" y="200" width="80" height="40" as="geometry" />
        </mxCell>
        <mxCell id="yMQ-dYww4BlOTwWdslz3-14" value="" style="shape=curlyBracket;whiteSpace=wrap;html=1;rounded=1;fontSize=23;" vertex="1" parent="yMQ-dYww4BlOTwWdslz3-1">
          <mxGeometry x="411" y="120" width="20" height="160" as="geometry" />
        </mxCell>
        <mxCell id="yMQ-dYww4BlOTwWdslz3-15" value="a" style="text;html=1;align=center;verticalAlign=middle;resizable=0;points=[];autosize=1;strokeColor=none;fillColor=none;fontSize=23;" vertex="1" parent="yMQ-dYww4BlOTwWdslz3-1">
          <mxGeometry x="382" y="185" width="30" height="30" as="geometry" />
        </mxCell>
        <mxCell id="yMQ-dYww4BlOTwWdslz3-16" value="..." style="rounded=0;whiteSpace=wrap;html=1;fontSize=23;" vertex="1" parent="yMQ-dYww4BlOTwWdslz3-1">
          <mxGeometry x="441" y="280" width="160" height="40" as="geometry" />
        </mxCell>
        <mxCell id="yMQ-dYww4BlOTwWdslz3-17" value="0x00FFFB10" style="rounded=0;whiteSpace=wrap;html=1;fontSize=23;fillColor=#dae8fc;strokeColor=#6c8ebf;" vertex="1" parent="yMQ-dYww4BlOTwWdslz3-1">
          <mxGeometry x="441" y="320" width="160" height="40" as="geometry" />
        </mxCell>
        <mxCell id="yMQ-dYww4BlOTwWdslz3-18" value="0x00FFFB11" style="rounded=0;whiteSpace=wrap;html=1;fontSize=23;fillColor=#dae8fc;strokeColor=#6c8ebf;" vertex="1" parent="yMQ-dYww4BlOTwWdslz3-1">
          <mxGeometry x="441" y="360" width="160" height="40" as="geometry" />
        </mxCell>
        <mxCell id="yMQ-dYww4BlOTwWdslz3-19" value="0x00FFFB12" style="rounded=0;whiteSpace=wrap;html=1;fontSize=23;fillColor=#dae8fc;strokeColor=#6c8ebf;" vertex="1" parent="yMQ-dYww4BlOTwWdslz3-1">
          <mxGeometry x="441" y="400" width="160" height="40" as="geometry" />
        </mxCell>
        <mxCell id="yMQ-dYww4BlOTwWdslz3-20" value="0x00FFFB13" style="rounded=0;whiteSpace=wrap;html=1;fontSize=23;fillColor=#dae8fc;strokeColor=#6c8ebf;" vertex="1" parent="yMQ-dYww4BlOTwWdslz3-1">
          <mxGeometry x="441" y="440" width="160" height="40" as="geometry" />
        </mxCell>
        <mxCell id="yMQ-dYww4BlOTwWdslz3-21" value="..." style="rounded=0;whiteSpace=wrap;html=1;fontSize=23;" vertex="1" parent="yMQ-dYww4BlOTwWdslz3-1">
          <mxGeometry x="601" y="280" width="80" height="40" as="geometry" />
        </mxCell>
        <mxCell id="yMQ-dYww4BlOTwWdslz3-22" value="32" style="rounded=0;whiteSpace=wrap;html=1;fontSize=23;fillColor=#dae8fc;strokeColor=#6c8ebf;" vertex="1" parent="yMQ-dYww4BlOTwWdslz3-1">
          <mxGeometry x="601" y="320" width="80" height="40" as="geometry" />
        </mxCell>
        <mxCell id="yMQ-dYww4BlOTwWdslz3-23" value="54" style="rounded=0;whiteSpace=wrap;html=1;fontSize=23;fillColor=#dae8fc;strokeColor=#6c8ebf;" vertex="1" parent="yMQ-dYww4BlOTwWdslz3-1">
          <mxGeometry x="601" y="360" width="80" height="40" as="geometry" />
        </mxCell>
        <mxCell id="yMQ-dYww4BlOTwWdslz3-24" value="98" style="rounded=0;whiteSpace=wrap;html=1;fontSize=23;fillColor=#dae8fc;strokeColor=#6c8ebf;" vertex="1" parent="yMQ-dYww4BlOTwWdslz3-1">
          <mxGeometry x="601" y="440" width="80" height="40" as="geometry" />
        </mxCell>
        <mxCell id="yMQ-dYww4BlOTwWdslz3-25" value="76" style="rounded=0;whiteSpace=wrap;html=1;fontSize=23;fillColor=#dae8fc;strokeColor=#6c8ebf;" vertex="1" parent="yMQ-dYww4BlOTwWdslz3-1">
          <mxGeometry x="601" y="400" width="80" height="40" as="geometry" />
        </mxCell>
        <mxCell id="yMQ-dYww4BlOTwWdslz3-26" value="&lt;div style=&quot;color: rgb(212 , 212 , 212) ; background-color: rgb(30 , 30 , 30) ; font-family: &amp;#34;consolas&amp;#34; , &amp;#34;courier new&amp;#34; , monospace ; font-weight: normal ; font-size: 31px ; line-height: 1.3&quot;&gt;&lt;div style=&quot;font-family: &amp;#34;consolas&amp;#34; , &amp;#34;courier new&amp;#34; , monospace ; line-height: 1.01&quot;&gt;&lt;div&gt;&lt;span style=&quot;color: #569cd6&quot;&gt;int&lt;/span&gt; &lt;span style=&quot;color: #dcdcaa&quot;&gt;main&lt;/span&gt;() {&lt;/div&gt;&lt;div&gt;&lt;br&gt;&lt;/div&gt;&lt;div&gt;&amp;nbsp; &lt;span style=&quot;color: #569cd6&quot;&gt;int&lt;/span&gt; a = &lt;span style=&quot;color: #b5cea8&quot;&gt;0x12345678&lt;/span&gt;;&lt;/div&gt;&lt;div&gt;&lt;br&gt;&lt;/div&gt;&lt;div&gt;&amp;nbsp; &lt;span style=&quot;color: #569cd6&quot;&gt;const&lt;/span&gt; &lt;span style=&quot;color: #569cd6&quot;&gt;int&lt;/span&gt;* &lt;span style=&quot;color: #569cd6&quot;&gt;const&lt;/span&gt; ip = &amp;amp;a;&lt;/div&gt;&lt;div&gt;&amp;nbsp; &lt;/div&gt;&lt;div&gt;&lt;br&gt;&lt;/div&gt;&lt;div&gt;&amp;nbsp; *ip = &lt;span style=&quot;color: #b5cea8&quot;&gt;0x33333333&lt;/span&gt;; &amp;nbsp; &lt;span style=&quot;color: #6a9955&quot;&gt;// error&amp;nbsp; &amp;nbsp; &amp;nbsp;&amp;nbsp;&lt;/span&gt;&lt;/div&gt;&lt;div&gt;&amp;nbsp; &lt;span style=&quot;color: #569cd6&quot;&gt;int&lt;/span&gt; b = &lt;span style=&quot;color: #b5cea8&quot;&gt;0x98765432&lt;/span&gt;;&lt;/div&gt;&lt;div&gt;&lt;br&gt;&lt;/div&gt;&lt;div&gt;&amp;nbsp; ip = &amp;amp;b &amp;nbsp; &amp;nbsp; &amp;nbsp; &amp;nbsp; &amp;nbsp; &amp;nbsp; &lt;span style=&quot;color: #6a9955&quot;&gt;// error&amp;nbsp; &amp;nbsp; &amp;nbsp;&lt;/span&gt;&lt;/div&gt;&lt;div&gt;}&lt;/div&gt;&lt;/div&gt;&lt;/div&gt;" style="text;whiteSpace=wrap;html=1;fontSize=23;" vertex="1" parent="yMQ-dYww4BlOTwWdslz3-1">
          <mxGeometry x="1039" y="45" width="610" height="225" as="geometry" />
        </mxCell>
        <mxCell id="yMQ-dYww4BlOTwWdslz3-27" value="0x00ABEA20" style="rounded=0;whiteSpace=wrap;html=1;fontSize=23;fillColor=#d5e8d4;strokeColor=#82b366;" vertex="1" parent="yMQ-dYww4BlOTwWdslz3-1">
          <mxGeometry x="441" width="160" height="40" as="geometry" />
        </mxCell>
        <mxCell id="yMQ-dYww4BlOTwWdslz3-28" value="DF" style="rounded=0;whiteSpace=wrap;html=1;fontSize=23;fillColor=#e1d5e7;strokeColor=#9673a6;" vertex="1" parent="yMQ-dYww4BlOTwWdslz3-1">
          <mxGeometry x="601" width="80" height="40" as="geometry" />
        </mxCell>
        <mxCell id="yMQ-dYww4BlOTwWdslz3-29" value="" style="shape=curlyBracket;whiteSpace=wrap;html=1;rounded=1;fontSize=23;" vertex="1" parent="yMQ-dYww4BlOTwWdslz3-1">
          <mxGeometry x="411" y="-80" width="20" height="160" as="geometry" />
        </mxCell>
        <mxCell id="yMQ-dYww4BlOTwWdslz3-30" value="0x00ABEA19" style="rounded=0;whiteSpace=wrap;html=1;fontSize=23;fillColor=#d5e8d4;strokeColor=#82b366;" vertex="1" parent="yMQ-dYww4BlOTwWdslz3-1">
          <mxGeometry x="441" y="-40" width="160" height="40" as="geometry" />
        </mxCell>
        <mxCell id="yMQ-dYww4BlOTwWdslz3-31" value="DE" style="rounded=0;whiteSpace=wrap;html=1;fontSize=23;fillColor=#e1d5e7;strokeColor=#9673a6;" vertex="1" parent="yMQ-dYww4BlOTwWdslz3-1">
          <mxGeometry x="601" y="-40" width="80" height="40" as="geometry" />
        </mxCell>
        <mxCell id="yMQ-dYww4BlOTwWdslz3-32" value="&lt;span&gt;0x00ABEA18&lt;/span&gt;" style="rounded=0;whiteSpace=wrap;html=1;fontSize=23;fillColor=#d5e8d4;strokeColor=#82b366;" vertex="1" parent="yMQ-dYww4BlOTwWdslz3-1">
          <mxGeometry x="441" y="-80" width="160" height="40" as="geometry" />
        </mxCell>
        <mxCell id="yMQ-dYww4BlOTwWdslz3-33" value="00" style="rounded=0;whiteSpace=wrap;html=1;fontSize=23;fillColor=#e1d5e7;strokeColor=#9673a6;" vertex="1" parent="yMQ-dYww4BlOTwWdslz3-1">
          <mxGeometry x="601" y="-80" width="80" height="40" as="geometry" />
        </mxCell>
        <mxCell id="yMQ-dYww4BlOTwWdslz3-34" value="内存地址" style="rounded=0;whiteSpace=wrap;html=1;fontSize=23;" vertex="1" parent="yMQ-dYww4BlOTwWdslz3-1">
          <mxGeometry x="441" y="-120" width="160" height="40" as="geometry" />
        </mxCell>
        <mxCell id="yMQ-dYww4BlOTwWdslz3-35" value="值" style="rounded=0;whiteSpace=wrap;html=1;fontSize=23;" vertex="1" parent="yMQ-dYww4BlOTwWdslz3-1">
          <mxGeometry x="601" y="-120" width="80" height="40" as="geometry" />
        </mxCell>
        <mxCell id="yMQ-dYww4BlOTwWdslz3-36" value="ip" style="text;html=1;align=center;verticalAlign=middle;resizable=0;points=[];autosize=1;strokeColor=none;fillColor=none;fontSize=23;" vertex="1" parent="yMQ-dYww4BlOTwWdslz3-1">
          <mxGeometry x="380" y="-16" width="30" height="30" as="geometry" />
        </mxCell>
        <object label="" id="yMQ-dYww4BlOTwWdslz3-37">
          <mxCell style="edgeStyle=segmentEdgeStyle;endArrow=classic;html=1;rounded=0;fontSize=23;exitX=1;exitY=0.5;exitDx=0;exitDy=0;entryX=1;entryY=0.5;entryDx=0;entryDy=0;strokeColor=#A50040;strokeWidth=2;" edge="1" parent="yMQ-dYww4BlOTwWdslz3-1" source="yMQ-dYww4BlOTwWdslz3-33" target="yMQ-dYww4BlOTwWdslz3-10">
            <mxGeometry width="50" height="50" relative="1" as="geometry">
              <mxPoint x="770" y="-40" as="sourcePoint" />
              <mxPoint x="820" y="-90" as="targetPoint" />
              <Array as="points">
                <mxPoint x="720" y="-60" />
                <mxPoint x="720" y="140" />
              </Array>
            </mxGeometry>
          </mxCell>
        </object>
        <mxCell id="yMQ-dYww4BlOTwWdslz3-44" value="&lt;span style=&quot;background-color: rgb(248 , 249 , 250)&quot;&gt;引用&lt;/span&gt;" style="edgeLabel;html=1;align=center;verticalAlign=middle;resizable=0;points=[];fontSize=25;fontColor=#A50040;" vertex="1" connectable="0" parent="yMQ-dYww4BlOTwWdslz3-37">
          <mxGeometry x="-0.1079" y="1" relative="1" as="geometry">
            <mxPoint as="offset" />
          </mxGeometry>
        </mxCell>
        <mxCell id="yMQ-dYww4BlOTwWdslz3-38" value="" style="shape=curlyBracket;whiteSpace=wrap;html=1;rounded=1;fontSize=23;" vertex="1" parent="yMQ-dYww4BlOTwWdslz3-1">
          <mxGeometry x="410" y="320" width="20" height="160" as="geometry" />
        </mxCell>
        <mxCell id="yMQ-dYww4BlOTwWdslz3-39" value="b" style="text;html=1;align=center;verticalAlign=middle;resizable=0;points=[];autosize=1;strokeColor=none;fillColor=none;fontSize=23;" vertex="1" parent="yMQ-dYww4BlOTwWdslz3-1">
          <mxGeometry x="382" y="383" width="30" height="30" as="geometry" />
        </mxCell>
        <mxCell id="yMQ-dYww4BlOTwWdslz3-42" value="" style="endArrow=none;html=1;rounded=0;fontSize=31;fillColor=#d80073;strokeColor=#A50040;strokeWidth=7;exitX=0.033;exitY=0.764;exitDx=0;exitDy=0;exitPerimeter=0;" edge="1" parent="yMQ-dYww4BlOTwWdslz3-1">
          <mxGeometry width="50" height="50" relative="1" as="geometry">
            <mxPoint x="1070.13" y="224.9000000000001" as="sourcePoint" />
            <mxPoint x="1168" y="224.8961038961038" as="targetPoint" />
          </mxGeometry>
        </mxCell>
        <mxCell id="yMQ-dYww4BlOTwWdslz3-45" value="" style="endArrow=none;html=1;rounded=0;fontSize=31;fillColor=#e1d5e7;strokeColor=#9673A6;strokeWidth=7;exitX=0.033;exitY=0.764;exitDx=0;exitDy=0;exitPerimeter=0;" edge="1" parent="yMQ-dYww4BlOTwWdslz3-1">
          <mxGeometry width="50" height="50" relative="1" as="geometry">
            <mxPoint x="1258" y="225.00000000000009" as="sourcePoint" />
            <mxPoint x="1355.87" y="224.9961038961038" as="targetPoint" />
          </mxGeometry>
        </mxCell>
        <mxCell id="yMQ-dYww4BlOTwWdslz3-46" value="" style="endArrow=classic;html=1;rounded=0;fontSize=25;strokeWidth=5;fillColor=#d80073;strokeColor=#A50040;" edge="1" parent="yMQ-dYww4BlOTwWdslz3-1">
          <mxGeometry width="50" height="50" relative="1" as="geometry">
            <mxPoint x="750" y="50" as="sourcePoint" />
            <mxPoint x="830" y="150" as="targetPoint" />
          </mxGeometry>
        </mxCell>
        <mxCell id="yMQ-dYww4BlOTwWdslz3-47" value="" style="endArrow=classic;html=1;rounded=0;fontSize=25;strokeWidth=5;fillColor=#d80073;strokeColor=#A50040;" edge="1" parent="yMQ-dYww4BlOTwWdslz3-1">
          <mxGeometry width="50" height="50" relative="1" as="geometry">
            <mxPoint x="1067" y="194" as="sourcePoint" />
            <mxPoint x="1007" y="194" as="targetPoint" />
          </mxGeometry>
        </mxCell>
        <mxCell id="yMQ-dYww4BlOTwWdslz3-48" value="&lt;font style=&quot;font-size: 24px&quot;&gt;限制引用关系为&lt;br&gt;只可读不可写&lt;br&gt;（不可修改 A8-AB 的值）&lt;/font&gt;" style="text;html=1;align=center;verticalAlign=middle;resizable=0;points=[];autosize=1;strokeColor=#A50040;fillColor=#A50040;fontSize=25;fontColor=#ffffff;" vertex="1" parent="yMQ-dYww4BlOTwWdslz3-1">
          <mxGeometry x="710" y="160" width="290" height="100" as="geometry" />
        </mxCell>
        <mxCell id="yMQ-dYww4BlOTwWdslz3-49" value="" style="endArrow=classic;html=1;rounded=0;fontSize=25;strokeWidth=5;fillColor=#d0cee2;strokeColor=#9673A6;" edge="1" parent="yMQ-dYww4BlOTwWdslz3-1">
          <mxGeometry width="50" height="50" relative="1" as="geometry">
            <mxPoint x="690" y="-40" as="sourcePoint" />
            <mxPoint x="1160" y="-40" as="targetPoint" />
          </mxGeometry>
        </mxCell>
        <mxCell id="yMQ-dYww4BlOTwWdslz3-50" value="" style="endArrow=classic;html=1;rounded=0;fontSize=25;strokeWidth=5;fillColor=#d0cee2;strokeColor=#9673A6;" edge="1" parent="yMQ-dYww4BlOTwWdslz3-1">
          <mxGeometry width="50" height="50" relative="1" as="geometry">
            <mxPoint x="1299" y="174" as="sourcePoint" />
            <mxPoint x="1299" y="1" as="targetPoint" />
          </mxGeometry>
        </mxCell>
        <mxCell id="yMQ-dYww4BlOTwWdslz3-51" value="&lt;font style=&quot;font-size: 24px&quot;&gt;限制A18-A21的值&lt;br&gt;必须为 0x00EDFDA8&lt;br&gt;&lt;/font&gt;" style="text;html=1;align=center;verticalAlign=middle;resizable=0;points=[];autosize=1;strokeColor=#9673A6;fillColor=#9673A6;fontSize=25;fontColor=#ffffff;" vertex="1" parent="yMQ-dYww4BlOTwWdslz3-1">
          <mxGeometry x="1172" y="-80" width="240" height="70" as="geometry" />
        </mxCell>
        <mxCell id="473DNia_l7mwQ3UH-UvO-0" value="&lt;span style=&quot;font-size: 24px&quot;&gt;标志符&amp;nbsp;&lt;/span&gt;&lt;span style=&quot;font-size: 24px&quot;&gt;ip 在存活期&lt;br&gt;永远绑定为 0x00ABEA18&lt;br&gt;&lt;/span&gt;" style="text;html=1;align=center;verticalAlign=middle;resizable=0;points=[];autosize=1;strokeColor=#82b366;fillColor=#d5e8d4;fontSize=25;" vertex="1" parent="yMQ-dYww4BlOTwWdslz3-1">
          <mxGeometry x="80" y="-36" width="280" height="70" as="geometry" />
        </mxCell>
        <mxCell id="473DNia_l7mwQ3UH-UvO-1" value="&lt;span style=&quot;font-size: 24px&quot;&gt;标志符 a&amp;nbsp;&lt;/span&gt;&lt;span style=&quot;font-size: 24px&quot;&gt;在存活期&lt;br&gt;永远绑定为 0x00EDFDA8&lt;br&gt;&lt;/span&gt;" style="text;html=1;align=center;verticalAlign=middle;resizable=0;points=[];autosize=1;strokeColor=#b85450;fillColor=#f8cecc;fontSize=25;" vertex="1" parent="yMQ-dYww4BlOTwWdslz3-1">
          <mxGeometry x="75" y="165" width="290" height="70" as="geometry" />
        </mxCell>
        <mxCell id="473DNia_l7mwQ3UH-UvO-2" value="&lt;span style=&quot;font-size: 24px&quot;&gt;标志符 b&amp;nbsp;&lt;/span&gt;&lt;span style=&quot;font-size: 24px&quot;&gt;在存活期&lt;br&gt;永远绑定为 0x00FFFB10&lt;br&gt;&lt;/span&gt;" style="text;html=1;align=center;verticalAlign=middle;resizable=0;points=[];autosize=1;strokeColor=#6c8ebf;fillColor=#dae8fc;fontSize=25;" vertex="1" parent="yMQ-dYww4BlOTwWdslz3-1">
          <mxGeometry x="80" y="365" width="280" height="70" as="geometry" />
        </mxCell>
      </root>
    </mxGraphModel>
  </diagram>
  <diagram id="a1X434u7EmUVxY661rKb" name="ttt">
    <mxGraphModel dx="1708" dy="975" grid="1" gridSize="10" guides="1" tooltips="1" connect="1" arrows="1" fold="1" page="1" pageScale="1" pageWidth="827" pageHeight="1169" math="0" shadow="0">
      <root>
        <mxCell id="0" />
        <mxCell id="1" parent="0" />
        <mxCell id="-3HbUrCCdRLYk_b-ErT1-1" style="edgeStyle=orthogonalEdgeStyle;rounded=0;orthogonalLoop=1;jettySize=auto;html=1;exitX=1;exitY=1;exitDx=0;exitDy=0;" edge="1" parent="1" source="1fJDoodTpqd1qXit3D9P-1">
          <mxGeometry relative="1" as="geometry">
            <mxPoint x="480" y="280" as="targetPoint" />
          </mxGeometry>
        </mxCell>
        <mxCell id="1fJDoodTpqd1qXit3D9P-1" value="" style="whiteSpace=wrap;html=1;aspect=fixed;" vertex="1" parent="1">
          <mxGeometry x="280" y="240" width="80" height="80" as="geometry" />
        </mxCell>
        <mxCell id="-3HbUrCCdRLYk_b-ErT1-2" value="" style="whiteSpace=wrap;html=1;aspect=fixed;" vertex="1" parent="1">
          <mxGeometry x="480" y="240" width="80" height="80" as="geometry" />
        </mxCell>
      </root>
    </mxGraphModel>
  </diagram>
</mxfile>
